<svg xmlns="http://www.w3.org/2000/svg" viewBox="0 0 880 500" font-family="system-ui, sans-serif">
  <!-- pusat -->
  <circle cx="440" cy="250" r="74" fill="#1d1c1a"/>
  <text x="440" y="244" text-anchor="middle" font-size="22" font-weight="700" fill="#fff">DKV</text>
  <text x="440" y="268" text-anchor="middle" font-size="12" fill="#c4c1ba">pesan &#8594; visual</text>

  <!-- garis penghubung -->
  <g stroke="#c4c1ba" stroke-width="2">
    <line x1="440" y1="176" x2="440" y2="106"/>
    <line x1="374" y1="215" x2="216" y2="140"/>
    <line x1="506" y1="215" x2="664" y2="140"/>
    <line x1="366" y1="262" x2="180" y2="290"/>
    <line x1="514" y1="262" x2="700" y2="290"/>
    <line x1="392" y1="312" x2="268" y2="404"/>
    <line x1="488" y1="312" x2="612" y2="404"/>
  </g>

  <g text-anchor="middle">
    <rect x="330" y="46" width="220" height="52" rx="26" fill="#f7e2ee"/>
    <text x="440" y="70" font-size="15" font-weight="700" fill="#c2367f">Desainer Grafis</text>
    <text x="440" y="88" font-size="11.5" fill="#7c2d5c">poster · kemasan · promosi (Jalur A)</text>

    <rect x="106" y="88" width="200" height="52" rx="26" fill="#f7e2ee"/>
    <text x="206" y="112" font-size="15" font-weight="700" fill="#c2367f">Fotografer</text>
    <text x="206" y="130" font-size="11.5" fill="#7c2d5c">produk · potret (Jalur A, P6+)</text>

    <rect x="574" y="88" width="200" height="52" rx="26" fill="#e0f0f7"/>
    <text x="674" y="112" font-size="15" font-weight="700" fill="#1a7fad">Videografer &#38; Editor</text>
    <text x="674" y="130" font-size="11.5" fill="#0d4d6b">iklan · konten · film (Jalur B)</text>

    <rect x="60" y="266" width="200" height="52" rx="26" fill="#e0f0f7"/>
    <text x="160" y="290" font-size="15" font-weight="700" fill="#1a7fad">Motion Designer</text>
    <text x="160" y="308" font-size="11.5" fill="#0d4d6b">grafis bergerak (Jalur B, P12)</text>

    <rect x="620" y="266" width="200" height="52" rx="26" fill="#f7e2ee"/>
    <text x="720" y="290" font-size="15" font-weight="700" fill="#c2367f">Desainer Brand</text>
    <text x="720" y="308" font-size="11.5" fill="#7c2d5c">logo · identitas (Jalur A, P12)</text>

    <rect x="158" y="404" width="220" height="52" rx="26" fill="#f1efe9"/>
    <text x="268" y="428" font-size="15" font-weight="700" fill="#1d1c1a">Ilustrator</text>
    <text x="268" y="446" font-size="11.5" fill="#6f6c66">buku · karakter · merchandise</text>

    <rect x="502" y="404" width="220" height="52" rx="26" fill="#f1efe9"/>
    <text x="612" y="428" font-size="15" font-weight="700" fill="#1d1c1a">Desainer UI</text>
    <text x="612" y="446" font-size="11.5" fill="#6f6c66">aplikasi · website</text>
  </g>
</svg>
